<svg xmlns="http://www.w3.org/2000/svg" version="1.1" xmlns:xlink="http://www.w3.org/1999/xlink" xmlns:svgjs="http://svgjs.dev/svgjs" width="1000" height="1000" viewBox="0 0 1000 1000"><g transform="matrix(1,0,0,1,0,1.1368683772161603e-13)"><svg viewBox="0 0 280 280" data-background-color="#ffffff" preserveAspectRatio="xMidYMid meet" height="1000" width="1000" xmlns="http://www.w3.org/2000/svg" xmlns:xlink="http://www.w3.org/1999/xlink"><g id="tight-bounds" transform="matrix(1,0,0,1,0,-2.842170943040401e-14)"><svg viewBox="0 0 280 280" height="280" width="280"><g><svg viewBox="0 0 280 280" height="280" width="280"><g><svg viewBox="0 0 280 280" height="280" width="280"><g id="textblocktransform"><svg viewBox="0 0 280 280" height="280" width="280" id="textblock"><g><svg viewBox="0 0 280 280" height="280" width="280"><g transform="matrix(1,0,0,1,57.50420886156945,57.50420886156945)"><svg viewBox="0 0 164.9915822768611 164.9915822768611" height="164.9915822768611" width="164.9915822768611"><g><circle r="82" cx="82.49579113843055" cy="82.49579113843055" fill="#6936f5" data-fill-palette-color="accent"></circle></g></svg></g><g><path d="M31.155 105.696v0c-0.587 1.785-1.406 3.099-2.458 3.941-1.044 0.838-2.29 1.27-3.739 1.298-1.444 0.035-3.04-0.234-4.788-0.808v0l-10.038-3.299c-1.747-0.574-3.172-1.301-4.273-2.18-1.093-0.883-1.801-1.962-2.124-3.235-0.314-1.277-0.178-2.808 0.409-4.593v0c0.589-1.791 1.393-3.1 2.412-3.925 1.019-0.825 2.226-1.267 3.622-1.326 1.396-0.058 2.967 0.199 4.715 0.774v0l10.066 3.308c1.728 0.568 3.156 1.296 4.283 2.183 1.133 0.89 1.884 1.975 2.253 3.257 0.362 1.279 0.249 2.814-0.34 4.605zM28.241 104.739v0c0.323-0.984 0.368-1.79 0.135-2.419-0.238-0.637-0.694-1.164-1.367-1.582-0.676-0.411-1.505-0.778-2.49-1.101v0l-11.608-3.815c-0.978-0.321-1.851-0.514-2.62-0.578-0.764-0.056-1.422 0.106-1.972 0.484-0.542 0.374-0.975 1.053-1.299 2.037v0c-0.321 0.978-0.377 1.784-0.166 2.419 0.215 0.644 0.647 1.167 1.298 1.569 0.655 0.411 1.471 0.777 2.449 1.098v0l11.608 3.815c0.984 0.323 1.871 0.517 2.661 0.581 0.788 0.07 1.468-0.087 2.041-0.471 0.565-0.38 1.009-1.059 1.33-2.037z" fill="#6936f5" data-fill-palette-color="primary"></path><path d="M42.275 81.877l-1.776 2.622-22.798-16.064 2.138-3.158 21.491 8.599-15.946-16.788 2.122-3.133 23.379 15.206-1.759 2.598-16.937-11.097 14.117 15.261-1.234 1.822-19.388-7.476z" fill="#6936f5" data-fill-palette-color="primary"></path><path d="M70.617 50.54l-8.263 7.071-18.13-21.186 8.21-7.026 1.878 2.195-5.259 4.5 6.002 7.014 4.268-3.652 1.787 2.088-4.268 3.652 6.65 7.771 5.312-4.546z" fill="#6936f5" data-fill-palette-color="primary"></path><path d="M87.132 40.611l-3.471 1.744-12.521-24.916 5.01-2.518c1.661-0.835 3.145-1.305 4.451-1.411 1.315-0.104 2.478 0.2 3.489 0.91 1.011 0.711 1.913 1.855 2.706 3.433v0c0.486 0.967 0.823 1.897 1.012 2.79 0.195 0.89 0.202 1.719 0.023 2.485-0.177 0.772-0.573 1.469-1.189 2.091v0l9.815 10.705-3.355 1.686-9.132-10.056-2.714 1.364zM75.863 18.187l4.141 8.24 1.325-0.667c0.985-0.495 1.724-1.019 2.22-1.572 0.486-0.556 0.725-1.204 0.717-1.943-0.013-0.736-0.288-1.638-0.825-2.706v0c-0.73-1.453-1.525-2.369-2.384-2.748-0.859-0.378-2.077-0.171-3.655 0.622v0z" fill="#6936f5" data-fill-palette-color="primary"></path><path d="M134.795 28.026l-3.166 0.03 0.25-27.888 3.814-0.037 5.146 22.568 4.743-22.663 3.784-0.036 0.785 27.878-3.137 0.03-0.502-20.242-4.527 20.291-2.201 0.021-4.874-20.201z" fill="#6936f5" data-fill-palette-color="primary"></path><path d="M170.381 31.668l-3.714-0.869 6.35-27.152 3.714 0.869z" fill="#6936f5" data-fill-palette-color="primary"></path><path d="M189.264 38.924l-2.97-1.453 12.25-25.05 2.38 1.164-1.025 20.118 8.137-16.64 2.908 1.422-12.25 25.05-2.228-1.089 1.163-20.628z" fill="#6936f5" data-fill-palette-color="primary"></path><path d="M214.954 55.63l-2.918-2.564 18.408-20.946 2.917 2.564-7.954 9.052 5.378 4.727 7.955-9.052 2.925 2.571-18.408 20.945-2.925-2.57 8.613-9.8-5.379-4.727z" fill="#6936f5" data-fill-palette-color="primary"></path><path d="M234.657 77.427l-1.986-3.057 26.607-10.229 2.045 3.149-20.14 20.184-2.007-3.09 5.193-4.894-3.092-4.76zM255.691 68.728l-11.793 4.917 2.528 3.892z" fill="#6936f5" data-fill-palette-color="primary"></path><path d="M249.251 107.483v-0.001c-0.521-1.52-0.629-2.897-0.322-4.132 0.302-1.227 0.942-2.299 1.918-3.216 0.97-0.915 2.2-1.678 3.69-2.287v0l1.991 2.949c-0.912 0.39-1.763 0.847-2.551 1.37-0.789 0.523-1.371 1.14-1.745 1.852-0.374 0.711-0.4 1.534-0.079 2.469v0c0.327 0.955 0.839 1.586 1.534 1.895 0.702 0.307 1.552 0.289 2.551-0.053v0c1.193-0.409 2.06-1.012 2.601-1.808 0.543-0.79 1.04-1.725 1.491-2.807v0l2.39-5.768c0.463-1.127 1.072-2.052 1.828-2.775 0.764-0.718 1.809-1.305 3.134-1.759v0c1.928-0.661 3.615-0.622 5.062 0.116 1.44 0.741 2.489 2.07 3.147 3.985v0c0.355 1.036 0.535 1.999 0.538 2.89 0.001 0.884-0.19 1.687-0.574 2.408-0.382 0.728-0.949 1.396-1.703 2.005-0.746 0.607-1.675 1.164-2.785 1.671v0l-1.92-2.836c0.843-0.366 1.595-0.772 2.257-1.217 0.662-0.445 1.131-0.988 1.409-1.631 0.274-0.634 0.254-1.407-0.058-2.317v0c-0.315-0.917-0.801-1.547-1.459-1.89-0.664-0.341-1.474-0.347-2.428-0.019v0c-0.804 0.276-1.42 0.638-1.849 1.086-0.429 0.449-0.808 1.07-1.139 1.865v0l-2.378 5.806c-0.53 1.298-1.265 2.533-2.204 3.704-0.945 1.173-2.244 2.043-3.895 2.61v0c-1.3 0.446-2.518 0.558-3.654 0.337-1.127-0.217-2.105-0.713-2.932-1.489-0.819-0.772-1.441-1.776-1.866-3.014z" fill="#6936f5" data-fill-palette-color="primary"></path><path d="M11.616 188.714v0c-0.594-1.804-0.717-3.357-0.37-4.659 0.351-1.311 1.104-2.411 2.257-3.301 1.158-0.899 2.617-1.637 4.377-2.217v0l10.121-3.333c1.759-0.579 3.348-0.84 4.765-0.782 1.423 0.056 2.645 0.506 3.663 1.352 1.019 0.846 1.826 2.17 2.42 3.974v0c0.594 1.804 0.725 3.347 0.393 4.631-0.334 1.277-1.048 2.358-2.141 3.242-1.099 0.886-2.529 1.619-4.288 2.198v0l-10.159 3.345c-1.734 0.571-3.329 0.834-4.784 0.789-1.455-0.045-2.712-0.477-3.771-1.296-1.061-0.825-1.889-2.139-2.483-3.943zM14.548 187.749v0c0.326 0.99 0.774 1.671 1.344 2.042 0.578 0.376 1.264 0.527 2.058 0.455 0.796-0.066 1.686-0.262 2.669-0.585v0l11.711-3.856c0.99-0.326 1.812-0.695 2.467-1.106 0.663-0.407 1.103-0.929 1.319-1.566 0.219-0.631 0.165-1.442-0.161-2.432v0c-0.326-0.99-0.765-1.677-1.319-2.062-0.555-0.39-1.221-0.556-1.998-0.495-0.771 0.058-1.651 0.25-2.641 0.576v0l-11.71 3.856c-0.984 0.324-1.815 0.696-2.495 1.115-0.68 0.419-1.139 0.955-1.379 1.607-0.235 0.644-0.19 1.461 0.135 2.451z" fill="#6936f5" data-fill-palette-color="primary"></path><path d="M25.758 217.266l-1.789-2.638 23.568-15.355 2.163 3.19-16.095 16.918 21.69-8.667 2.14 3.157-22.986 16.212-1.772-2.613 16.724-11.713-19.569 7.518-1.246-1.838 14.248-15.365z" fill="#6936f5" data-fill-palette-color="primary"></path><path d="M57.748 252.638l-8.336-7.123 18.271-21.38 8.283 7.078-1.896 2.218-5.3-4.529-6.042 7.072 4.3 3.675-1.805 2.112-4.301-3.675-6.702 7.843 5.352 4.574z" fill="#6936f5" data-fill-palette-color="primary"></path><path d="M78.221 265.172l-3.507-1.76 12.616-25.135 5.055 2.537c1.673 0.84 2.947 1.758 3.822 2.754 0.874 0.996 1.328 2.119 1.362 3.369 0.037 1.244-0.346 2.664-1.147 4.261v0c-0.485 0.967-1.033 1.799-1.643 2.496-0.607 0.691-1.276 1.195-2.006 1.511-0.728 0.325-1.528 0.425-2.401 0.299v0l-2.752 14.386-3.383-1.698 2.626-13.446-2.723-1.367zM89.577 242.547l-4.177 8.322 1.335 0.67c0.991 0.497 1.857 0.776 2.599 0.837 0.748 0.064 1.418-0.131 2.01-0.585 0.592-0.453 1.157-1.217 1.696-2.291v0c0.739-1.472 1.002-2.669 0.789-3.593-0.212-0.924-1.114-1.785-2.704-2.583v0z" fill="#6936f5" data-fill-palette-color="primary"></path><path d="M134.553 279.85l-3.187-0.031 0.791-28.117 3.854 0.037 4.748 22.863 5.22-22.766 3.814 0.037 0.245 28.127-3.156-0.031-0.111-20.417-4.958 20.368-2.221-0.021-4.522-20.461z" fill="#6936f5" data-fill-palette-color="primary"></path><path d="M174.937 275.69l-3.753 0.876-6.398-27.386 3.753-0.877z" fill="#6936f5" data-fill-palette-color="primary"></path><path d="M197.95 266.968l-2.989 1.46-12.34-25.272 2.398-1.171 15.375 13.284-8.197-16.789 2.935-1.433 12.34 25.272-2.246 1.097-15.701-13.701z" fill="#6936f5" data-fill-palette-color="primary"></path><path d="M228.081 247.331l-2.949 2.588-18.554-21.135 2.949-2.589 8.016 9.131 5.426-4.763-8.016-9.131 2.949-2.589 18.553 21.136-2.948 2.589-8.679-9.887-5.426 4.763z" fill="#6936f5" data-fill-palette-color="primary"></path><path d="M251.36 221.432l-2.009 3.09-20.321-20.34 2.063-3.173 26.852 10.296-2.025 3.114-6.637-2.783-3.121 4.801zM234.732 205.608l9.349 8.859 2.557-3.933z" fill="#6936f5" data-fill-palette-color="primary"></path><path d="M268.714 187.163v0c-0.527 1.532-1.292 2.697-2.297 3.496-1.009 0.791-2.184 1.247-3.524 1.369-1.337 0.13-2.786-0.024-4.348-0.463v0l0.235-3.594c0.963 0.261 1.925 0.426 2.883 0.496 0.95 0.074 1.796-0.057 2.536-0.392 0.74-0.335 1.272-0.974 1.595-1.916v0c0.33-0.961 0.313-1.778-0.052-2.45-0.369-0.682-1.057-1.195-2.061-1.541v0c-1.206-0.414-2.269-0.475-3.192-0.181-0.916 0.296-1.891 0.733-2.926 1.312v0l-5.471 3.111c-1.068 0.616-2.129 0.974-3.181 1.075-1.053 0.101-2.245-0.077-3.576-0.534v0c-1.953-0.671-3.274-1.75-3.963-3.236-0.683-1.484-0.695-3.187-0.035-5.109v0c0.363-1.055 0.816-1.935 1.36-2.639 0.55-0.702 1.201-1.227 1.952-1.572 0.755-0.337 1.62-0.517 2.597-0.54 0.968-0.018 2.052 0.116 3.252 0.402v0l-0.227 3.45c-0.903-0.233-1.752-0.377-2.547-0.434-0.801-0.058-1.514 0.084-2.136 0.425-0.614 0.337-1.08 0.966-1.397 1.889v0c-0.315 0.917-0.316 1.717-0.003 2.4 0.319 0.685 0.959 1.193 1.919 1.523v0c0.81 0.278 1.526 0.37 2.149 0.275 0.62-0.089 1.309-0.347 2.066-0.774v0l5.481-3.14c1.226-0.709 2.577-1.238 4.053-1.587 1.481-0.347 3.051-0.236 4.708 0.334v0c1.319 0.453 2.358 1.116 3.118 1.988 0.767 0.874 1.237 1.875 1.412 3.002 0.174 1.127 0.048 2.312-0.38 3.555z" fill="#6936f5" data-fill-palette-color="primary"></path><path d="M11.181 143.95c0-1.78 1.443-3.223 3.223-3.223 1.78 0 3.223 1.443 3.223 3.223 0 1.78-1.443 3.223-3.223 3.223-1.78 0-3.223-1.443-3.223-3.223z" fill="#6936f5" data-fill-palette-color="primary"></path><path d="M262.148 143.95c0-1.78 1.443-3.223 3.223-3.223 1.78 0 3.223 1.443 3.223 3.223 0 1.78-1.443 3.223-3.223 3.223-1.78 0-3.223-1.443-3.223-3.223z" fill="#6936f5" data-fill-palette-color="primary"></path></g></svg></g></svg></g></svg></g></svg></g><defs></defs></svg><rect width="280" height="280" fill="none" stroke="none" visibility="hidden"></rect></g></svg></g></svg>